<?xml version="1.0" standalone="no"?>
<!DOCTYPE svg PUBLIC "-//W3C//DTD SVG 20010904//EN"
 "http://www.w3.org/TR/2001/REC-SVG-20010904/DTD/svg10.dtd">
<svg version="1.0" xmlns="http://www.w3.org/2000/svg"
 width="260.000000pt" height="260.000000pt" viewBox="0 0 260.000000 260.000000"
 preserveAspectRatio="xMidYMid meet">
<metadata>
Created by potrace 1.11, written by Peter Selinger 2001-2013
</metadata>
<g transform="translate(0.000000,260.000000) scale(0.100000,-0.100000)"
fill="#000000" stroke="none">
<path d="M1288 2553 c-3 -10 -67 -170 -143 -355 -102 -251 -142 -338 -154
-338 -9 1 -173 47 -366 104 -192 57 -352 102 -354 100 -3 -2 244 -454 345
-631 l24 -42 -315 -223 c-259 -183 -311 -224 -292 -229 12 -3 183 -32 380 -65
l357 -59 -1 -25 c0 -14 -10 -188 -22 -387 -22 -360 -22 -362 -2 -345 11 9 137
124 282 254 144 131 266 238 271 238 5 0 134 -114 288 -253 153 -140 280 -251
282 -247 2 5 -6 160 -18 347 -11 186 -20 356 -20 378 l0 40 353 59 c193 33
363 62 376 66 22 5 -1 25 -185 155 -115 82 -253 180 -306 218 -54 38 -100 72
-103 76 -2 5 79 158 180 341 102 184 183 335 182 336 -2 2 -99 -26 -217 -61
-118 -35 -283 -83 -367 -108 l-151 -45 -143 352 c-78 193 -145 355 -149 359
-4 5 -10 0 -12 -10z"/>
</g>
</svg>
